# xmcd CD database file
# Copyright (C) 1997 Ti Kan
# 
# Track frame offsets:
#     182
#     7490
#     25920
#     45825
#     66835
#     84107
#     103627
#     112052
#     114770
#     132980
#     154052
#     168840
#     188192
#     206942
#     226992
# 
# Disc length: 3287 seconds
# 
# Revision: 1
# Processed by: cddbd v1.4b41PL1 Copyright (c) Steve Scherf et al.
# Submitted via: DiscPlay 4.0.3
# 
DISCID=c00cd50f
DTITLE=Crucial Conflict - The Final Tic
DYEAR=1900
DGENRE=
TTITLE0=Intro-Don't Let It
TTITLE1=Final Tic
TTITLE2=Showdown
TTITLE3=Desperado
TTITLE4=Life Ain't The Same
TTITLE5=Hay
TTITLE6=Trigger Happy
TTITLE7=1-900-Off-Your Square
TTITLE8=Lil Advice
TTITLE9=Tell It To The Judge
TTITLE10=Ride The Rodeo
TTITLE11=To The Left
TTITLE12=Just Getting My Money
TTITLE13=Get Up
TTITLE14=Hay (Remix)
EXTD=
EXTT0=
EXTT1=
EXTT2=
EXTT3=
EXTT4=
EXTT5=
EXTT6=
EXTT7=
EXTT8=
EXTT9=
EXTT10=
EXTT11=
EXTT12=
EXTT13=
EXTT14=
PLAYORDER=
